<svg xmlns="http://www.w3.org/2000/svg" viewBox="0 0 256 272">
  <path fill="#8CC84B" d="M128 .4l119.5 68.9v137.8L128 275.9 8.5 207.1V69.3z"></path>
  <path fill="#fff" d="M128 30l-91.5 52.8v106.1L128 242l91.5-52.8V82.8z"></path>
  <path fill="#8CC84B" d="M175.2 119.1c0-27.4-19.8-43.5-49.9-43.5-19.1 0-33.7 6.6-42.8 20.1-4.6 6.9-6.6 13.6-6.6 24.7h27.2c0-12.1 5.5-17.5 17.5-17.5 10.7 0 16.5 4.7 16.5 13.6 0 8.1-3.3 12.3-20.7 20.6-17.5 8.4-25.2 17.2-25.2 34.2V191h73.6v-22.7h-46c0-7.8 3.2-11.4 19.7-18.8 16.9-8.2 26.7-17.8 26.7-30.4z"></path>
</svg>
