<svg xmlns="http://www.w3.org/2000/svg" viewBox="0 0 841.9 595.3">
  <g fill="#61DAFB">
    <circle cx="420.9" cy="296.5" r="45.7"></circle>
    <path d="M520.5 78.1c-34.6 0-68.3 8.5-100.3 25.4-31.9-16.9-65.6-25.4-100.2-25.4-69.2 0-138.1 29.2-206.8 87.7l48.5 56.2c54.7-47.1 109.4-70.6 164.3-70.6 22.7 0 44.9 3.9 66.5 11.7 21.6-7.8 43.8-11.7 66.5-11.7 54.9 0 109.6 23.5 164.3 70.6l48.5-56.2c-68.7-58.5-137.6-87.7-206.8-87.7z"></path>
    <path d="M624.1 515.7c-54.7 47.1-109.4 70.6-164.3 70.6-22.7 0-44.9-3.9-66.5-11.7-21.6 7.8-43.8 11.7-66.5 11.7-54.9 0-109.6-23.5-164.3-70.6l-48.5 56.2c68.7 58.5 137.6 87.7 206.8 87.7 34.6 0 68.3-8.5 100.2-25.4 31.9 16.9 65.6 25.4 100.3 25.4 69.2 0 138.1-29.2 206.8-87.7l-48.5-56.2z"></path>
    <path d="M107.8 296.5c0-40.4 6.8-79.6 20.2-117.3l-62.1-18.6c-15.7 46.4-23.6 93.7-23.6 141.8s7.9 95.3 23.6 141.7l62.1-18.6c-13.4-37.7-20.2-76.9-20.2-117.3zM734.1 179.2c13.4 37.7 20.2 76.9 20.2 117.3s-6.8 79.6-20.2 117.3l62.1 18.6c15.7-46.4 23.6-93.7 23.6-141.7s-7.9-95.3-23.6-141.8l-62.1 18.6z"></path>
  </g>
</svg>
