<svg xmlns="http://www.w3.org/2000/svg" viewBox="0 0 256 154">
  <linearGradient id="a" x1="0%" y1="0%" x2="100%" y2="100%">
    <stop offset="0%" stop-color="#2298BD"></stop>
    <stop offset="100%" stop-color="#0ED7B5"></stop>
  </linearGradient>
  <path fill="url(#a)" d="M128 0C93.867 0 73.6 17.067 67.2 51.2c9.6-17.067 21.333-23.467 35.2-19.2 7.667 2.4 13.133 9.6 19.2 17.067 9.6 12.8 20.8 26.133 45.867 26.133 34.133 0 54.4-17.067 60.8-51.2-9.6 17.067-21.333 23.467-35.2 19.2-7.667-2.4-13.133-9.6-19.2-17.067C163.2 13.333 152 0 128 0zm-60.8 76.8c-34.133 0-54.4 17.067-60.8 51.2 9.6-17.067 21.333-23.467 35.2-19.2 7.667 2.4 13.133 9.6 19.2 17.067C71.2 138.667 82.4 152 106.667 152c34.133 0 54.4-17.067 60.8-51.2-9.6 17.067-21.333 23.467-35.2 19.2-7.667-2.4-13.133-9.6-19.2-17.067-9.6-12.8-20.8-26.133-45.867-26.133z"></path>
</svg>
