<svg xmlns="http://www.w3.org/2000/svg" viewBox="0 0 512 512">
  <rect width="512" height="512" fill="#3178c6"></rect>
  <path fill="#fff" d="M232 284h-58v158h-46V284h-58v-40h162zm70-40c19 0 34 4 44 12 10 8 15 20 15 36v18h-45v-12c0-6-2-11-6-15s-10-6-18-6c-8 0-14 2-18 6-5 4-7 9-7 16 0 6 2 11 7 15 4 3 13 6 25 9 17 4 30 10 40 18 10 9 16 22 16 40s-6 32-18 42c-12 11-28 16-48 16-21 0-38-6-50-18-12-11-18-27-18-47v-14h45v16c0 8 2 14 7 18 5 4 12 6 21 6s16-2 20-6c5-4 7-9 7-16s-2-12-7-16c-5-3-14-6-27-9-16-4-29-9-39-17-10-7-15-19-15-35 0-16 6-30 17-40 11-11 26-16 46-16z"></path>
</svg>
